<?xml version="1.0" standalone="no"?>
<!DOCTYPE svg PUBLIC "-//W3C//DTD SVG 20010904//EN"
 "http://www.w3.org/TR/2001/REC-SVG-20010904/DTD/svg10.dtd">
<svg version="1.0" xmlns="http://www.w3.org/2000/svg"
 width="120.000000pt" height="120.000000pt" viewBox="0 0 120.000000 120.000000"
 preserveAspectRatio="xMidYMid meet">

<g transform="translate(0.000000,120.000000) scale(0.100000,-0.100000)"
fill="#000000" stroke="none">
<path d="M320 962 c0 -98 -2 -111 -21 -128 -33 -29 -74 -94 -94 -147 -18 -47
-18 -47 -53 -41 -25 5 -33 4 -28 -5 4 -6 18 -11 32 -11 21 0 24 -5 24 -35 0
-32 -2 -35 -31 -35 -17 0 -28 -4 -24 -10 3 -5 17 -10 31 -10 22 0 25 -4 22
-32 -2 -28 -8 -34 -30 -36 -16 -2 -28 -8 -28 -13 0 -6 14 -7 33 -4 31 6 33 5
46 -41 32 -108 154 -233 258 -264 70 -22 185 -24 249 -5 135 39 257 161 288
289 6 26 10 28 41 22 22 -4 35 -3 35 4 0 5 -9 10 -19 10 -37 0 -48 10 -43 40
4 25 9 30 33 30 16 0 29 5 29 10 0 6 -13 10 -29 10 -23 0 -30 5 -34 27 -7 35
-2 43 28 43 13 0 27 5 31 11 5 9 -3 10 -30 5 -30 -6 -37 -4 -42 11 -17 50 -57
123 -89 160 l-35 41 0 106 c0 78 -3 106 -12 106 -7 -1 -33 -31 -58 -68 -34
-49 -51 -66 -65 -64 -11 1 -48 8 -83 14 -60 11 -142 4 -193 -17 -12 -4 -30 13
-69 64 -28 39 -56 71 -61 71 -5 0 -9 -49 -9 -108z m290 -207 c0 -32 2 -35 31
-35 20 0 40 -10 60 -29 29 -29 29 -31 29 -141 0 -138 -11 -165 -75 -182 -39
-10 -44 -16 -47 -42 -4 -41 -22 -40 -26 2 -3 24 -8 32 -23 32 -28 0 -77 27
-89 49 -5 11 -10 71 -10 135 0 108 1 116 25 145 17 19 37 31 58 33 28 3 32 7
35 36 5 46 32 43 32 -3z"/>
<path d="M515 666 c-23 -23 -25 -31 -25 -126 0 -87 3 -103 20 -120 11 -11 32
-20 46 -20 21 0 25 4 22 23 -2 14 -11 23 -25 25 -13 2 -23 10 -23 17 0 7 10
15 23 17 29 4 31 43 2 43 -11 0 -21 8 -23 18 -3 13 3 17 22 17 34 0 37 37 4
42 -13 2 -24 11 -26 21 -3 13 3 17 23 17 22 0 26 4 23 22 -4 32 -33 34 -63 4z"/>
<path d="M610 666 c0 -18 6 -25 23 -28 12 -2 22 -10 22 -18 0 -8 -10 -16 -22
-18 -33 -5 -31 -42 2 -42 15 0 25 -6 25 -15 0 -8 -11 -17 -25 -21 -16 -4 -25
-13 -25 -25 0 -14 7 -19 25 -19 16 0 25 -6 25 -15 0 -9 -9 -15 -25 -15 -20 0
-25 -5 -25 -25 0 -20 5 -25 23 -25 47 0 57 27 57 148 0 103 -2 112 -22 126
-34 24 -58 20 -58 -8z"/>
</g>
</svg>
